<svg width="16" height="16" viewBox="0 0 16 16" fill="none" xmlns="http://www.w3.org/2000/svg">
<path d="M8.10869 0.122618C8.05305 0.0584824 7.98885 0.0180264 7.92168 0.00478181C7.85451 -0.0084628 7.78642 0.00590694 7.72335 0.0466363L2.40733 3.45199H0.414343C0.304452 3.45199 0.199062 3.52477 0.121358 3.65431C0.0436538 3.78385 0 3.95954 0 4.14273V11.0502C0 11.2333 0.0436538 11.409 0.121358 11.5386C0.199062 11.6681 0.304452 11.7409 0.414343 11.7409H2.40733L7.72335 15.1463C7.78602 15.1866 7.85364 15.2009 7.92037 15.1879C7.9871 15.175 8.05094 15.1352 8.10639 15.072C8.16185 15.0088 8.20725 14.924 8.23869 14.8251C8.27012 14.7261 8.28665 14.6159 8.28685 14.5039V0.689026C8.28674 0.577665 8.27048 0.467999 8.23946 0.369375C8.20844 0.270751 8.16357 0.186094 8.10869 0.122618Z" fill="black"/>
</svg>
