<svg width="16" height="16" viewBox="0 0 16 16" fill="none" xmlns="http://www.w3.org/2000/svg">
<path d="M8.10869 0.122618C8.05305 0.0584824 7.98885 0.0180264 7.92168 0.00478181C7.85451 -0.0084628 7.78642 0.00590694 7.72335 0.0466363L2.40733 3.45199H0.414343C0.304452 3.45199 0.199062 3.52477 0.121358 3.65431C0.0436538 3.78385 0 3.95954 0 4.14273V11.0502C0 11.2333 0.0436538 11.409 0.121358 11.5386C0.199062 11.6681 0.304452 11.7409 0.414343 11.7409H2.40733L7.72335 15.1463C7.78602 15.1866 7.85364 15.2009 7.92037 15.1879C7.9871 15.175 8.05094 15.1352 8.10639 15.072C8.16185 15.0088 8.20725 14.924 8.23869 14.8251C8.27012 14.7261 8.28665 14.6159 8.28685 14.5039V0.689026C8.28674 0.577665 8.27048 0.467999 8.23946 0.369375C8.20844 0.270751 8.16357 0.186094 8.10869 0.122618Z" fill="black"/>
<path d="M13.7739 2.23783C13.6418 2.1247 13.4718 2.06558 13.298 2.07229C13.1242 2.07901 12.9594 2.15105 12.8364 2.27404C12.7134 2.39703 12.6413 2.56189 12.6346 2.7357C12.6279 2.9095 12.687 3.07943 12.8002 3.21154C13.3775 3.78869 13.8355 4.47393 14.148 5.22812C14.4604 5.98231 14.6213 6.79067 14.6213 7.60702C14.6213 8.42338 14.4604 9.23173 14.148 9.98592C13.8355 10.7401 13.3775 11.4254 12.8002 12.0025C12.7279 12.0644 12.6692 12.1406 12.6277 12.2263C12.5863 12.3119 12.563 12.4053 12.5593 12.5004C12.5556 12.5955 12.5716 12.6903 12.6064 12.7789C12.6411 12.8675 12.6937 12.948 12.761 13.0153C12.8283 13.0826 12.9088 13.1353 12.9974 13.17C13.0861 13.2047 13.1809 13.2208 13.276 13.2171C13.3711 13.2134 13.4644 13.1901 13.5501 13.1487C13.6358 13.1072 13.712 13.0485 13.7739 12.9762C14.4796 12.2708 15.0395 11.4332 15.4215 10.5114C15.8034 9.58951 16 8.60143 16 7.60357C16 6.60571 15.8034 5.61763 15.4215 4.69577C15.0395 3.77392 14.4796 2.93635 13.7739 2.23092V2.23783Z" fill="black"/>
<path d="M12.3098 3.70194C12.1777 3.58881 12.0078 3.52969 11.834 3.5364C11.6602 3.54312 11.4953 3.61517 11.3723 3.73815C11.2493 3.86114 11.1773 4.02601 11.1706 4.19981C11.1639 4.37361 11.223 4.54354 11.3361 4.67565C11.7214 5.06046 12.027 5.51743 12.2355 6.02044C12.444 6.52344 12.5513 7.06261 12.5513 7.60712C12.5513 8.15163 12.444 8.6908 12.2355 9.19381C12.027 9.69681 11.7214 10.1538 11.3361 10.5386C11.2638 10.6005 11.2051 10.6767 11.1637 10.7624C11.1222 10.848 11.0989 10.9414 11.0952 11.0365C11.0916 11.1316 11.1076 11.2264 11.1423 11.315C11.177 11.4036 11.2297 11.4841 11.297 11.5514C11.3643 11.6187 11.4448 11.6714 11.5334 11.7061C11.622 11.7408 11.7168 11.7568 11.812 11.7532C11.9071 11.7495 12.0004 11.7262 12.0861 11.6848C12.1717 11.6433 12.2479 11.5846 12.3098 11.5123C13.3451 10.4763 13.9266 9.0717 13.9266 7.60712C13.9266 6.14254 13.3451 4.73789 12.3098 3.70194Z" fill="black"/>
<path d="M10.8458 5.16574C10.7157 5.03662 10.5397 4.96444 10.3565 4.96509C10.1732 4.96574 9.99774 5.03916 9.86862 5.16919C9.7395 5.29923 9.66733 5.47524 9.66797 5.65849C9.66862 5.84174 9.74204 6.01723 9.87207 6.14635C10.26 6.5348 10.478 7.06136 10.478 7.61036C10.478 8.15937 10.26 8.68593 9.87207 9.07437C9.74204 9.2035 9.66862 9.37899 9.66797 9.56224C9.66733 9.74549 9.7395 9.9215 9.86862 10.0515C9.99774 10.1816 10.1732 10.255 10.3565 10.2556C10.5397 10.2563 10.7157 10.1841 10.8458 10.055C11.4931 9.40748 11.8567 8.52939 11.8567 7.61382C11.8567 6.69824 11.4931 5.82015 10.8458 5.17265V5.16574Z" fill="black"/>
</svg>
