<svg width="16" height="16" viewBox="0 0 16 16" fill="none" xmlns="http://www.w3.org/2000/svg">
<path d="M8.14004 0.121354C8.08467 0.0581355 8.02095 0.0181817 7.95432 0.00490287C7.88768 -0.00837592 7.82011 0.00541488 7.75737 0.045098L2.41664 3.46278H0.415945C0.305629 3.46278 0.199832 3.53581 0.121827 3.66582C0.0438226 3.79583 0 3.97216 0 4.15602V11.0884C0 11.2723 0.0438226 11.4486 0.121827 11.5786C0.199832 11.7086 0.305629 11.7817 0.415945 11.7817H2.41664L7.75321 15.1993C7.81612 15.2398 7.884 15.2542 7.95099 15.2412C8.01798 15.2282 8.08207 15.1883 8.13774 15.1248C8.1934 15.0614 8.23898 14.9763 8.27054 14.877C8.3021 14.7777 8.31869 14.667 8.31889 14.5546V0.689812C8.31878 0.578048 8.30246 0.467985 8.27132 0.369005C8.24017 0.270024 8.19513 0.18506 8.14004 0.121354Z" fill="black"/>
<path d="M13.8714 7.26546L15.8333 5.30359C15.9469 5.17097 16.0062 5.00038 15.9995 4.82591C15.9928 4.65144 15.9204 4.48593 15.797 4.36247C15.6735 4.23901 15.508 4.16668 15.3335 4.15994C15.1591 4.1532 14.9885 4.21255 14.8558 4.32612L12.894 6.28799L10.9321 4.32612C10.7995 4.21255 10.6289 4.1532 10.4544 4.15994C10.28 4.16668 10.1144 4.23901 9.99098 4.36247C9.86752 4.48593 9.79519 4.65144 9.78845 4.82591C9.78172 5.00038 9.84106 5.17097 9.95463 5.30359L11.9096 7.26546L9.9477 9.22733C9.87513 9.28948 9.81619 9.36596 9.77458 9.45196C9.73297 9.53797 9.70959 9.63165 9.7059 9.72712C9.70221 9.82259 9.7183 9.9178 9.75315 10.0068C9.788 10.0957 9.84087 10.1765 9.90843 10.2441C9.97599 10.3116 10.0568 10.3645 10.1457 10.3994C10.2347 10.4342 10.3299 10.4503 10.4254 10.4466C10.5209 10.4429 10.6145 10.4195 10.7005 10.3779C10.7865 10.3363 10.863 10.2774 10.9252 10.2048L12.887 8.24293L14.8489 10.2048C14.9815 10.3184 15.1521 10.3777 15.3266 10.371C15.5011 10.3642 15.6666 10.2919 15.79 10.1685C15.9135 10.045 15.9858 9.87948 15.9926 9.70501C15.9993 9.53054 15.94 9.35995 15.8264 9.22733L13.8714 7.26546Z" fill="black"/>
</svg>
